<svg xmlns="http://www.w3.org/2000/svg" viewBox="0 0 1055.44 1056.99">
  <path id="Polygon_36" data-name="Polygon 36" d="M500.423,35.332a35.854,35.854,0,0,1,56.144,0h0a35.854,35.854,0,0,0,50.694,5.513h0a35.854,35.854,0,0,1,54.832,12.069h0A35.854,35.854,0,0,0,710.417,69.2h0a35.854,35.854,0,0,1,50.955,23.574h0a35.854,35.854,0,0,0,43.693,26.289h0a35.854,35.854,0,0,1,44.7,33.977h0a35.854,35.854,0,0,0,37.02,35.068h0A35.854,35.854,0,0,1,923.13,230.9h0A35.854,35.854,0,0,0,951.746,273.1h0a35.854,35.854,0,0,1,26.3,49.6h0a35.854,35.854,0,0,0,18.874,47.371h0a35.854,35.854,0,0,1,15.02,54.1h0a35.854,35.854,0,0,0,8.25,50.321h0a35.854,35.854,0,0,1,3.04,56.062h0a35.854,35.854,0,0,0-2.761,50.918h0a35.854,35.854,0,0,1-9.083,55.4h0a35.854,35.854,0,0,0-13.642,49.134h0a35.854,35.854,0,0,1-20.781,52.157h0a35.854,35.854,0,0,0-23.885,45.052h0a35.854,35.854,0,0,1-31.508,46.47h0a35.854,35.854,0,0,0-33.012,38.865h0A35.854,35.854,0,0,1,847.8,907.173h0A35.854,35.854,0,0,0,807.2,938.033h0a35.854,35.854,0,0,1-48.108,28.946h0a35.854,35.854,0,0,0-46.28,21.411h0a35.854,35.854,0,0,1-53.206,17.927h0a35.854,35.854,0,0,0-49.8,10.962h0a35.854,35.854,0,0,1-55.815,6.07h0a35.854,35.854,0,0,0-50.993,0h0a35.854,35.854,0,0,1-55.815-6.07h0a35.854,35.854,0,0,0-49.8-10.962h0a35.854,35.854,0,0,1-53.206-17.927h0a35.854,35.854,0,0,0-46.28-21.411h0a35.854,35.854,0,0,1-48.108-28.946h0a35.854,35.854,0,0,0-40.595-30.859h0a35.854,35.854,0,0,1-40.761-38.611h0A35.854,35.854,0,0,0,135.422,829.7h0a35.854,35.854,0,0,1-31.508-46.47h0a35.854,35.854,0,0,0-23.885-45.052h0a35.854,35.854,0,0,1-20.781-52.157h0a35.854,35.854,0,0,0-13.642-49.134h0a35.854,35.854,0,0,1-9.083-55.4h0a35.854,35.854,0,0,0-2.761-50.918h0A35.854,35.854,0,0,1,36.8,474.5h0a35.854,35.854,0,0,0,8.25-50.321h0a35.854,35.854,0,0,1,15.02-54.1h0a35.854,35.854,0,0,0,18.874-47.371h0a35.854,35.854,0,0,1,26.3-49.6h0A35.854,35.854,0,0,0,133.86,230.9h0a35.854,35.854,0,0,1,36.347-42.791h0a35.854,35.854,0,0,0,37.02-35.068h0a35.854,35.854,0,0,1,44.7-33.977h0a35.854,35.854,0,0,0,43.693-26.289h0A35.854,35.854,0,0,1,346.573,69.2h0A35.854,35.854,0,0,0,394.9,52.916h0a35.854,35.854,0,0,1,54.832-12.07h0a35.854,35.854,0,0,0,50.693-5.513Z" transform="translate(0 1056.99) rotate(-90)" fill="#fff"/>
</svg>
