<svg xmlns="http://www.w3.org/2000/svg" xmlns:xlink="http://www.w3.org/1999/xlink"  viewBox="0 0 1289 1263">
  <defs>
    <filter id="_12" x="0" y="346.5"  filterUnits="userSpaceOnUse">
      <feOffset dx="25" dy="13" input="SourceAlpha"/>
      <feGaussianBlur result="blur"/>
      <feFlood flood-color="#2b2b2b"/>
      <feComposite operator="in" in2="blur"/>
      <feComposite in="SourceGraphic"/>
    </filter>
  </defs>
  <rect id="Rectangle_41" data-name="Rectangle 41" width="1264" height="1263" rx="130" fill="#535353"/>
  <g data-name="diesvg" transform="translate(104.28 1159.995) rotate(-90)" fill="#2b2b2b">
    <path d="M 477.5405883789062 1006.49755859375 C 476.1448974609375 1006.49755859375 472.6585998535156 1006.118041992188 470.4381408691406 1002.600341796875 C 458.7621459960938 984.10205078125 438.7212219238281 973.0581665039062 416.8292236328125 973.0581665039062 C 404.6142883300781 973.0581665039062 392.7230529785156 976.5757446289062 382.4407348632812 983.2306518554688 C 381.0507507324219 984.1303100585938 379.5441284179688 984.5866088867188 377.9630432128906 984.5866088867188 C 375.231201171875 984.5867919921875 371.5179748535156 983.1378784179688 370.0438232421875 979.0537109375 C 361.0075073242188 954.018798828125 337.0579833984375 937.198486328125 310.4482727050781 937.198486328125 C 302.8682861328125 937.198486328125 295.4056701660156 938.5515747070312 288.267822265625 941.2200317382812 C 287.2905883789062 941.5852661132812 286.2996826171875 941.7706298828125 285.3232116699219 941.7708129882812 C 281.7781372070312 941.7711181640625 277.6766052246094 939.21435546875 277.0584411621094 934.4755859375 C 272.9556579589844 903.0277099609375 245.9682922363281 879.3128051757812 214.2835235595703 879.3128051757812 C 211.3273620605469 879.3128051757812 208.3398284912109 879.5191040039062 205.3275146484375 879.9469604492188 C 204.9012145996094 880.007568359375 204.4787445068359 880.038330078125 204.062744140625 880.038330078125 C 200.9481353759766 880.0385131835938 198.9118194580078 878.324462890625 197.9752044677734 877.3027954101562 C 196.8509063720703 876.0763549804688 195.5661315917969 873.9788208007812 195.8299865722656 870.9508056640625 C 197.3110504150391 853.9564819335938 192.0447540283203 837.4370727539062 181.0012054443359 824.4357299804688 C 169.9578247070312 811.4342041015625 154.5079803466797 803.5648193359375 137.4979858398438 802.2769165039062 C 133.9993591308594 802.0120239257812 132.0592041015625 799.8814086914062 131.2139739990234 798.6349487304688 C 130.368896484375 797.3883056640625 129.107666015625 794.7974243164062 130.1566009521484 791.4492797851562 C 135.2562866210938 775.1707763671875 133.6642913818359 757.9053955078125 125.673828125 742.8338623046875 C 117.6833648681641 727.7623291015625 104.2864379882812 716.7557373046875 87.95105743408203 711.841552734375 C 84.59120941162109 710.830810546875 83.15444183349609 708.332763671875 82.59690093994141 706.9337158203125 C 82.03952026367188 705.53466796875 81.36489868164062 702.7332763671875 83.10890197753906 699.68896484375 C 91.58890533447266 684.8872680664062 93.74567413330078 667.6832275390625 89.18197631835938 651.246337890625 C 84.6182861328125 634.8095703125 73.90074920654297 621.1803588867188 59.00366973876953 612.8692626953125 C 55.93951797485352 611.1597290039062 55.0733642578125 608.4112548828125 54.82966995239258 606.9251098632812 C 54.58597946166992 605.43896484375 54.52936553955078 602.5580444335938 56.88705444335938 599.959716796875 C 68.35074615478516 587.3270874023438 74.15536499023438 570.9889526367188 73.23182678222656 553.9552612304688 C 72.30828857421875 536.9215698242188 64.77120971679688 521.30712890625 52.00890350341797 509.9878845214844 C 49.38397979736328 507.6598815917969 49.12890243530273 504.7893981933594 49.21044158935547 503.2855529785156 C 49.2919807434082 501.7818603515625 49.85597991943359 498.9560241699219 52.71705627441406 496.9254150390625 C 66.62844085693359 487.0523376464844 75.80951690673828 472.3440246582031 78.56920623779297 455.510009765625 C 81.32905578613281 438.6761779785156 77.32474517822266 421.8063354492188 67.29413604736328 408.0083312988281 C 65.23120880126953 405.1704711914062 65.59905242919922 402.3123168945312 66.00197601318359 400.8612670898438 C 66.40474700927734 399.4101867675781 67.56305694580078 396.7715759277344 70.7938232421875 395.403564453125 C 86.50244140625 388.751708984375 98.63074493408203 376.3609619140625 104.9447479248047 360.5138549804688 C 111.2587509155273 344.6667785644531 110.9747467041016 327.3307800292969 104.144905090332 311.6990966796875 C 102.7399826049805 308.4838562011719 103.7136688232422 305.771728515625 104.419059753418 304.4411010742188 C 105.1244430541992 303.1106262207031 106.8228988647461 300.7826538085938 110.2722854614258 300.14111328125 C 127.0435180664062 297.021728515625 141.5519866943359 287.5278625488281 151.1250610351562 273.4083251953125 C 160.6979827880859 259.2890930175781 164.147216796875 242.2972564697266 160.8373565673828 225.5629425048828 C 160.1710510253906 222.1937103271484 161.6395111083984 219.7820281982422 162.5742797851562 218.6443328857422 C 163.5122833251953 217.5026397705078 165.5938262939453 215.58740234375 168.9955139160156 215.58740234375 L 171.4041290283203 215.626953125 C 205.5856781005859 215.626953125 233.9896697998047 187.8143310546875 234.7212066650391 153.6280212402344 C 234.8295135498047 148.56787109375 239.1061401367188 145.4355621337891 243.0061340332031 145.4355621337891 C 243.7107543945312 145.4355621337891 244.4073638916016 145.5257110595703 245.1356658935547 145.7112579345703 C 250.2650604248047 147.0180206298828 255.5362854003906 147.6807861328125 260.8016662597656 147.6807861328125 C 290.1172180175781 147.6807861328125 315.4233703613281 127.7684860229492 322.3416748046875 99.25771331787109 C 323.4095153808594 94.85710144042969 327.3159790039062 92.85279083251953 330.4936828613281 92.85279083251953 C 331.7598266601562 92.85279083251953 333.0116577148438 93.15971374511719 334.2144470214844 93.76479339599609 C 343.0129089355469 98.19110107421875 352.8482971191406 100.5307922363281 362.6565856933594 100.5307922363281 C 387.0652160644531 100.5307922363281 408.8852233886719 86.91402435302734 419.6015319824219 64.99433135986328 C 421.7304382324219 60.63971710205078 425.933837890625 60.30125427246094 427.1713562011719 60.30125427246094 C 429.0913696289062 60.30125427246094 430.8428955078125 60.93402481079102 432.3775024414062 62.18202209472656 C 443.638916015625 71.34002685546875 457.8258361816406 76.38402557373047 472.3248901367188 76.38494873046875 C 472.3260803222656 76.38494873046875 472.3278198242188 76.38494873046875 472.3290100097656 76.38494873046875 C 491.7759704589844 76.38494873046875 509.8627319335938 67.65786743164062 521.9531860351562 52.44063949584961 C 524.1364135742188 49.6926383972168 526.9888916015625 49.28233337402344 528.494873046875 49.28233337402344 C 530.0009155273438 49.28233337402344 532.8532104492188 49.69248580932617 535.0358276367188 52.43971633911133 C 547.1259765625 67.65694427490234 565.2144165039062 76.38463592529297 584.6629028320312 76.38463592529297 C 599.1619873046875 76.38463592529297 613.349365234375 71.34063720703125 624.6116943359375 62.18186950683594 C 626.1461181640625 60.93402481079102 627.89794921875 60.30110168457031 629.8179931640625 60.30110168457031 C 631.0555419921875 60.30110168457031 635.2587280273438 60.63956069946289 637.3876953125 64.99402618408203 C 648.10400390625 86.91371917724609 669.9239501953125 100.5304870605469 694.3324584960938 100.5304870605469 C 704.140625 100.5304870605469 713.975830078125 98.1907958984375 722.77490234375 93.76432800292969 C 723.9776611328125 93.15925598144531 725.2296752929688 92.85248565673828 726.495849609375 92.85248565673828 C 729.6735229492188 92.85248565673828 733.579833984375 94.85679626464844 734.6476440429688 99.25725555419922 C 741.5659790039062 127.7678680419922 766.8720092773438 147.68017578125 796.1873779296875 147.68017578125 C 801.4524536132812 147.68017578125 806.723388671875 147.0175628662109 811.8538208007812 145.7106323242188 C 812.5718383789062 145.5277099609375 813.2884521484375 145.4349517822266 813.9833374023438 145.4349517822266 C 817.8833618164062 145.4349517822266 822.1598510742188 148.5671081542969 822.2681274414062 153.6272583007812 C 822.9996948242188 187.813720703125 851.4036865234375 215.6263275146484 885.5853881835938 215.6263275146484 L 887.683349609375 215.5918731689453 C 887.6881103515625 215.5918579101562 887.693359375 215.5918579101562 887.6981201171875 215.5918579101562 C 891.4030151367188 215.5918579101562 893.4796142578125 217.5030212402344 894.4161376953125 218.6429443359375 C 895.3507690429688 219.7804870605469 896.8189086914062 222.1918640136719 896.1522827148438 225.5621795654297 C 892.8424682617188 242.2967987060547 896.2918090820312 259.2889404296875 905.8650512695312 273.4081726074219 C 915.4381103515625 287.5274047851562 929.9464111328125 297.0210876464844 946.7173461914062 300.1403198242188 C 950.1669311523438 300.7820129394531 951.8653564453125 303.1100158691406 952.5707397460938 304.4404907226562 C 953.276123046875 305.7710876464844 954.2498168945312 308.4830932617188 952.8450317382812 311.6981811523438 C 946.0151977539062 327.3301696777344 945.731201171875 344.6664733886719 952.0453491210938 360.5135498046875 C 958.359375 376.3604736328125 970.4876708984375 388.7510986328125 986.1959838867188 395.4028015136719 C 989.4268798828125 396.7709350585938 990.585205078125 399.4095764160156 990.9881591796875 400.8606262207031 C 991.3910522460938 402.3117065429688 991.7589111328125 405.1698608398438 989.69580078125 408.007568359375 C 979.6652221679688 421.8058776855469 975.6610717773438 438.6757202148438 978.4208984375 455.5097045898438 C 981.1806030273438 472.3435668945312 990.36181640625 487.0517272949219 1004.272888183594 496.9246520996094 C 1007.134155273438 498.9554138183594 1007.698120117188 501.78125 1007.779663085938 503.2850952148438 C 1007.861206054688 504.7887878417969 1007.606140136719 507.6590881347656 1004.981201171875 509.9872436523438 C 992.2188720703125 521.306640625 984.6820068359375 536.9212646484375 983.7584228515625 553.9549560546875 C 982.8348999023438 570.9884643554688 988.6395263671875 587.3264770507812 1000.102905273438 599.9591064453125 C 1002.460876464844 602.5574340820312 1002.404113769531 605.4386596679688 1002.160583496094 606.9246215820312 C 1001.916931152344 608.4107666015625 1001.050720214844 611.1592407226562 997.9867553710938 612.86865234375 C 983.0895385742188 621.1796875 972.3720092773438 634.80908203125 967.8082885742188 651.2460327148438 C 963.2445678710938 667.6828002929688 965.4013671875 684.8866577148438 973.8812255859375 699.6883544921875 C 975.6253662109375 702.7327880859375 974.9507446289062 705.5343017578125 974.3933715820312 706.9332275390625 C 973.8359985351562 708.3323364257812 972.3992309570312 710.8302001953125 969.0393676757812 711.8409423828125 C 952.7039794921875 716.7552490234375 939.3070678710938 727.7618408203125 931.3165893554688 742.833251953125 C 923.3261108398438 757.90478515625 921.734130859375 775.1700439453125 926.8336791992188 791.4486694335938 C 927.8827514648438 794.797119140625 926.6215209960938 797.38818359375 925.7763061523438 798.634765625 C 924.9312133789062 799.881103515625 922.9910278320312 802.01171875 919.4926147460938 802.276611328125 C 902.482421875 803.5645141601562 887.0325927734375 811.4338989257812 875.9890747070312 824.4354248046875 C 864.9456787109375 837.436767578125 859.6793823242188 853.9561767578125 861.1604614257812 870.9505004882812 C 861.4241333007812 873.9765014648438 860.1395263671875 876.0735473632812 859.0155029296875 877.2998657226562 C 858.0783081054688 878.322509765625 856.040771484375 880.037841796875 852.9244384765625 880.0380249023438 C 852.5093383789062 880.0380249023438 852.0887451171875 880.007080078125 851.6633911132812 879.9466552734375 C 848.6521606445312 879.5191040039062 845.660888671875 879.3125 842.7069091796875 879.3125 C 811.0222778320312 879.3125 784.034912109375 903.0272827148438 779.9320068359375 934.47509765625 C 779.3138427734375 939.2135620117188 775.2105712890625 941.7705078125 771.663818359375 941.7705078125 C 770.6898193359375 941.7706298828125 769.7003173828125 941.5852661132812 768.7225952148438 941.2197265625 C 761.5853881835938 938.5513916015625 754.1224365234375 937.1981811523438 746.5422973632812 937.1981811523438 C 719.9324340820312 937.1981811523438 695.98291015625 954.0184936523438 686.9465942382812 979.0532836914062 C 685.4725952148438 983.1370849609375 681.7575073242188 984.5863037109375 679.0241088867188 984.5864868164062 C 677.4453735351562 984.5866088867188 675.9400024414062 984.1303100585938 674.5494995117188 983.23046875 C 664.2675170898438 976.5755615234375 652.3761596679688 973.0580444335938 640.161376953125 973.0580444335938 C 618.2693481445312 973.0580444335938 598.2285766601562 984.1018676757812 586.5523071289062 1002.600158691406 C 584.3321533203125 1006.117553710938 580.8436889648438 1006.497436523438 579.4468994140625 1006.497436523438 C 577.8753662109375 1006.49755859375 575.5761108398438 1006.066772460938 573.5471801757812 1004.0146484375 C 561.553955078125 991.884033203125 545.5541381835938 985.2032470703125 528.4952392578125 985.2032470703125 C 511.4365844726562 985.2032470703125 495.4368896484375 991.8838500976562 483.443359375 1004.014343261719 C 481.4144287109375 1006.066650390625 479.1136779785156 1006.497436523438 477.5405883789062 1006.49755859375 Z" stroke="none"/>
    <path d="M 528.4951171875 84.49847412109375 C 512.6614379882812 96.984375 493.030517578125 103.8849487304688 472.3267211914062 103.8849487304688 C 458.6428833007812 103.8849487304688 445.1530151367188 100.7537841796875 432.9259643554688 94.87164306640625 C 415.92822265625 115.7035522460938 390.4635620117188 128.03076171875 362.6566772460938 128.03076171875 C 355.6347045898438 128.03076171875 348.6044311523438 127.1961669921875 341.7565307617188 125.5723266601562 C 326.5504150390625 155.563720703125 295.6510009765625 175.1805419921875 260.8017578125 175.1805419921875 C 260.2923583984375 175.1805419921875 259.782958984375 175.17626953125 259.2735595703125 175.1676025390625 C 250.5184936523438 208.3494262695312 223.2490234375 234.318359375 189.5142822265625 241.2811889648438 C 188.9136962890625 258.136962890625 183.596923828125 274.5191650390625 173.8863525390625 288.84130859375 C 164.1866455078125 303.1472778320312 150.9545288085938 314.1416015625 135.5403442382812 320.9404296875 C 138.5633544921875 337.5137939453125 136.8892211914062 354.6353759765625 130.4917602539062 370.6920166015625 C 124.09423828125 386.7489013671875 113.5347900390625 400.3310546875 99.9423828125 410.28466796875 C 106.4576416015625 425.8209228515625 108.5032348632812 442.9024658203125 105.7068481445312 459.9592895507812 C 102.91064453125 477.0159912109375 95.5179443359375 492.5501708984375 84.38323974609375 505.1927490234375 C 94.0859375 518.9650268554688 99.75567626953125 535.2073364257812 100.69140625 552.4664306640625 C 101.6272583007812 569.7254638671875 97.74688720703125 586.485595703125 89.59014892578125 601.2264404296875 C 102.026611328125 612.591064453125 111.0554809570312 627.2349243164062 115.6796264648438 643.8892822265625 C 120.3037109375 660.5438232421875 120.1168823242188 677.7463989257812 115.3197021484375 693.8958740234375 C 129.908447265625 702.3212280273438 141.8740844726562 714.6815185546875 149.9701538085938 729.952392578125 C 158.0663452148438 745.223388671875 161.5820922851562 762.06396484375 160.3687744140625 778.8673095703125 C 176.4276123046875 783.959716796875 190.77099609375 793.458984375 201.960693359375 806.6323852539062 C 213.1570434570312 819.8137817382812 220.21240234375 835.5152587890625 222.635498046875 852.1978149414062 C 257.3400268554688 855.4111328125 286.970458984375 878.4327392578125 299.1594848632812 910.4014892578125 C 302.8923950195312 909.9335327148438 306.6597900390625 909.6983642578125 310.4481201171875 909.6983642578125 C 341.4298706054688 909.6983642578125 369.8983764648438 925.6000366210938 386.4463500976562 950.7935791015625 C 396.148681640625 947.3416137695312 406.4060668945312 945.5580444335938 416.8290405273438 945.5580444335938 C 441.0217895507812 945.5580444335938 463.6400146484375 954.9686279296875 480.404541015625 971.4302368164062 C 494.682861328125 962.4859619140625 511.2095336914062 957.703125 528.4952392578125 957.703125 C 545.78125 957.703125 562.3076171875 962.4857788085938 576.5858154296875 971.4301147460938 C 593.3504638671875 954.9682006835938 615.968505859375 945.557861328125 640.1612548828125 945.557861328125 C 650.5848388671875 945.557861328125 660.8408203125 947.3410034179688 670.5438232421875 950.7935180664062 C 687.09130859375 925.5968017578125 715.5582275390625 909.6982421875 746.5421142578125 909.6982421875 C 750.3309326171875 909.6982421875 754.0972900390625 909.9332275390625 757.8306884765625 910.4012451171875 C 770.019775390625 878.4332275390625 799.650634765625 855.410888671875 834.3549194335938 852.1976318359375 C 836.77783203125 835.51513671875 843.8330688476562 819.8139038085938 855.0294189453125 806.6323852539062 C 866.2191162109375 793.4588623046875 880.5623168945312 783.95947265625 896.6214599609375 778.8670654296875 C 895.4082641601562 762.0638427734375 898.9240112304688 745.2222900390625 907.0203247070312 729.9514770507812 C 915.1165771484375 714.6807861328125 927.0819091796875 702.3206787109375 941.6705322265625 693.8953857421875 C 936.8734130859375 677.745849609375 936.6865844726562 660.54296875 941.3106689453125 643.8885498046875 C 945.934814453125 627.2341918945312 954.9635620117188 612.590576171875 967.4000244140625 601.22607421875 C 959.243408203125 586.4854736328125 955.36279296875 569.7249755859375 956.2985229492188 552.4661865234375 C 957.234375 535.2071533203125 962.904296875 518.9645385742188 972.6069946289062 505.1920776367188 C 961.47216796875 492.5493774414062 954.0792846679688 477.01513671875 951.2830810546875 459.9585571289062 C 948.4866943359375 442.90185546875 950.5322875976562 425.8203735351562 957.0475463867188 410.2840576171875 C 943.455322265625 400.3307495117188 932.8961791992188 386.7492065429688 926.49853515625 370.6925659179688 C 920.100830078125 354.6358032226562 918.4265747070312 337.5136108398438 921.4495239257812 320.93994140625 C 906.0352783203125 314.1412353515625 892.80322265625 303.1468505859375 883.1033935546875 288.8407592773438 C 873.3927001953125 274.5186157226562 868.075927734375 258.1365966796875 867.475341796875 241.2807006835938 C 833.7406616210938 234.31787109375 806.4710083007812 208.3492431640625 797.7159423828125 175.167236328125 C 797.2066040039062 175.1759033203125 796.69677734375 175.18017578125 796.1873779296875 175.18017578125 C 761.3358154296875 175.18017578125 730.4376220703125 155.5665893554688 715.2327270507812 125.5719604492188 C 708.3848876953125 127.1957397460938 701.3544921875 128.0303955078125 694.33251953125 128.0303955078125 C 666.5259399414062 128.0303955078125 641.0615234375 115.7035522460938 624.0633544921875 94.871337890625 C 611.8365478515625 100.7534790039062 598.3468017578125 103.8845825195312 584.662841796875 103.8845825195312 C 563.959228515625 103.8845825195312 544.3291015625 96.984619140625 528.4951171875 84.49847412109375 M 528.4948120117188 21.7823486328125 C 538.9435424804688 21.7823486328125 549.3890380859375 26.2979736328125 556.5670166015625 35.33258056640625 L 556.5673828125 35.3331298828125 C 568.9847412109375 50.9615478515625 591.7745361328125 53.44012451171875 607.2610473632812 40.84619140625 L 607.26123046875 40.84619140625 C 625.163818359375 26.287353515625 651.9583129882812 32.18505859375 662.093017578125 52.9156494140625 L 662.09326171875 52.9156494140625 C 670.8603515625 70.84844970703125 692.584716796875 78.16815185546875 710.41650390625 69.1976318359375 L 710.4166870117188 69.1976318359375 C 715.6292724609375 66.575439453125 721.1190185546875 65.35284423828125 726.4957885742188 65.3524169921875 C 742.3822021484375 65.35101318359375 757.306396484375 76.01812744140625 761.3721923828125 92.772216796875 L 761.3721923828125 92.77239990234375 C 766.0792236328125 112.17041015625 785.7220458984375 123.9893798828125 805.0654296875 119.0616455078125 L 805.0656127929688 119.0616455078125 C 827.4266357421875 113.3656005859375 849.2681274414062 129.9689331054688 849.7617797851562 153.0389404296875 L 849.7617797851562 153.0391235351562 C 850.1888427734375 172.9954223632812 866.8312377929688 188.7601928710938 886.7821655273438 188.1067504882812 L 886.7825317382812 188.1067504882812 C 909.8456420898438 187.35009765625 927.6068725585938 208.2611083984375 923.129638671875 230.8980102539062 C 919.2567138671875 250.4796752929688 932.12158203125 269.4540405273438 951.7459716796875 273.10400390625 L 951.7461547851562 273.10400390625 C 974.4323120117188 277.3236694335938 987.283447265625 301.5634765625 978.044677734375 322.7085571289062 L 978.044677734375 322.708740234375 C 970.0528564453125 341 978.5381469726562 362.2962036132812 996.9190673828125 370.0794677734375 L 996.9192504882812 370.0796508789062 C 1018.16796875 379.0772705078125 1025.5078125 405.5131225585938 1011.939392089844 424.1776733398438 L 1011.939208984375 424.1778564453125 C 1000.2021484375 440.323486328125 1003.911071777344 462.9458618164062 1020.189086914062 474.4985961914062 L 1020.189208984375 474.498779296875 C 1039.0068359375 487.85400390625 1040.4921875 515.2494506835938 1023.228698730469 530.5609130859375 L 1023.228698730469 530.5610961914062 C 1008.295043945312 543.8062133789062 1007.053955078125 566.6968994140625 1020.4677734375 581.4789428710938 L 1020.467956542969 581.4791259765625 C 1035.974853515625 598.5672607421875 1031.5361328125 625.6416625976562 1011.384887695312 636.884033203125 L 1011.384704589844 636.884033203125 C 993.9530639648438 646.609130859375 987.8201293945312 668.697998046875 997.74267578125 686.01806640625 L 997.7428588867188 686.0181884765625 C 1009.213623046875 706.0404052734375 999.0587158203125 731.5274658203125 976.9616088867188 738.1751098632812 L 976.96142578125 738.1751098632812 C 957.8466796875 743.9254760742188 947.10888671875 764.179443359375 953.0759887695312 783.2276611328125 L 953.076171875 783.2278442382812 C 959.9744873046875 805.2478637695312 944.5779418945312 827.9561767578125 921.5684814453125 829.697998046875 C 901.664306640625 831.2049560546875 886.8234252929688 848.6771240234375 888.5567016601562 868.562744140625 L 888.5565185546875 868.5629272460938 C 890.5599365234375 891.5509033203125 870.641845703125 910.4185791015625 847.7959594726562 907.1734619140625 L 847.7955932617188 907.1734619140625 C 828.0326538085938 904.3663330078125 809.783203125 918.2396850585938 807.2008666992188 938.0327758789062 L 807.2008666992188 938.0330810546875 C 804.215576171875 960.9143676757812 780.7070922851562 975.0589599609375 759.0928955078125 966.9785766601562 L 759.0926513671875 966.9785766601562 C 740.3956298828125 959.988525390625 719.590087890625 969.6144409179688 712.813232421875 988.3896484375 L 712.8130493164062 988.3898315429688 C 704.9788818359375 1010.094604492188 678.9793701171875 1018.854736328125 659.6076049804688 1006.316955566406 C 642.8502197265625 995.470947265625 620.461669921875 1000.399108886719 609.8070678710938 1017.278747558594 L 609.8070678710938 1017.278930664062 C 597.4901733398438 1036.7919921875 570.2152099609375 1039.758422851562 553.9915771484375 1023.349304199219 L 553.9915771484375 1023.34912109375 C 539.9573974609375 1009.154541015625 517.0330810546875 1009.154541015625 502.9989013671875 1023.34912109375 L 502.9989013671875 1023.349304199219 C 486.7752075195312 1039.758666992188 459.5003051757812 1036.7919921875 447.1834106445312 1017.279113769531 L 447.1832275390625 1017.278747558594 C 436.5286865234375 1000.399291992188 414.140380859375 995.4710693359375 397.3828735351562 1006.316955566406 C 378.0111083984375 1018.854919433594 352.0114135742188 1010.0947265625 344.17724609375 988.3900146484375 L 344.17724609375 988.3898315429688 C 337.4003295898438 969.6145629882812 316.5950317382812 959.9889526367188 297.8975830078125 966.978759765625 L 297.8973999023438 966.978759765625 C 276.2833862304688 975.0590209960938 252.774658203125 960.9146118164062 249.7896118164062 938.0333251953125 L 249.7896118164062 938.0330810546875 C 247.207275390625 918.2398681640625 228.957275390625 904.3665161132812 209.1947021484375 907.1736450195312 L 209.1945190429688 907.173828125 C 186.3479614257812 910.4190063476562 166.4302978515625 891.55126953125 168.4337768554688 868.5632934570312 L 168.4337768554688 868.5629272460938 C 170.1668701171875 848.6773071289062 155.3259887695312 831.205322265625 135.4219360351562 829.6983642578125 L 135.4217529296875 829.6983642578125 C 112.412353515625 827.9564208984375 97.01580810546875 805.2481689453125 103.9141235351562 783.2282104492188 C 109.8814086914062 764.1800537109375 99.14361572265625 743.926025390625 80.02886962890625 738.1756591796875 L 80.0286865234375 738.1754760742188 C 57.93157958984375 731.5280151367188 47.77667236328125 706.040771484375 59.2474365234375 686.0185546875 L 59.2474365234375 686.0184326171875 C 69.170166015625 668.6986083984375 63.0372314453125 646.609619140625 45.60540771484375 636.8845825195312 L 45.605224609375 636.8845825195312 C 25.4539794921875 625.6420288085938 21.015380859375 598.56787109375 36.52215576171875 581.4796752929688 L 36.52215576171875 581.4794921875 C 49.9361572265625 566.697509765625 48.695068359375 543.8067626953125 33.76141357421875 530.5616455078125 C 16.4979248046875 515.2501831054688 17.9830322265625 487.854736328125 36.8009033203125 474.499267578125 L 36.80108642578125 474.499267578125 C 53.07904052734375 462.9465942382812 56.78778076171875 440.3240356445312 45.050537109375 424.1784057617188 C 31.482177734375 405.5138549804688 38.82196044921875 379.0781860351562 60.0706787109375 370.0803833007812 L 60.07086181640625 370.0802001953125 C 78.4517822265625 362.2967529296875 86.93707275390625 341.0005493164062 78.945068359375 322.7092895507812 L 78.945068359375 322.7091064453125 C 69.706298828125 301.5640258789062 82.55743408203125 277.3244018554688 105.2435913085938 273.104736328125 C 124.8681640625 269.45458984375 137.7328491210938 250.4804077148438 133.8599853515625 230.8987426757812 L 133.8599853515625 230.8985595703125 C 129.461669921875 208.6611328125 146.5279541015625 188.0895385742188 168.9951171875 188.08740234375 C 169.3985595703125 188.0873413085938 169.8002319335938 188.0939331054688 170.20703125 188.1072998046875 L 170.2072143554688 188.1072998046875 C 190.1597290039062 188.7606201171875 206.800537109375 172.9959716796875 207.2276000976562 153.0396728515625 L 207.2276000976562 153.0394897460938 C 207.655029296875 133.064453125 224.0900268554688 117.9373168945312 243.0059204101562 117.9354858398438 C 245.9368286132812 117.9351806640625 248.9239501953125 118.2980346679688 251.9237670898438 119.0621948242188 L 251.9239501953125 119.0621948242188 C 271.2671508789062 123.989501953125 290.91015625 112.1708374023438 295.6172485351562 92.77276611328125 L 295.6172485351562 92.7725830078125 C 301.058837890625 70.347900390625 325.9586791992188 58.82794189453125 346.5726928710938 69.197998046875 L 346.5728759765625 69.197998046875 C 364.4046020507812 78.16864013671875 386.12890625 70.84844970703125 394.8959350585938 52.916015625 L 394.8961181640625 52.91583251953125 C 401.2279663085938 39.96441650390625 414.0653076171875 32.8023681640625 427.17138671875 32.80126953125 C 435.043212890625 32.800537109375 443.0100708007812 35.38323974609375 449.7279663085938 40.84637451171875 L 449.7283325195312 40.8465576171875 C 465.2149047851562 53.44061279296875 488.0046997070312 50.9620361328125 500.4217529296875 35.33367919921875 L 500.4226684570312 35.3323974609375 C 507.5990600585938 26.300048828125 518.048583984375 21.7823486328125 528.4948120117188 21.7823486328125 Z" stroke="none" fill="#ff5e5e"/>
  </g>
  <g transform="matrix(1, 0, 0, 1, 0, 0)" filter="url(#_12)">
    <text id="_12-2" data-name="td100" transform="translate(0 346.5)" fill="#fff" font-size="467" font-family="Impact"><tspan x="-205" y="471"></tspan></text>
  </g>
</svg>
