<svg xmlns="http://www.w3.org/2000/svg" viewBox="0 0 1081.012 1135.329">
  <path id="Path_23" data-name="Path 23" d="M901.679,1466.82a23.537,23.537,0,0,1-7.993-1.4L581.133,1351.531c-.292-.117-.642-.233-.934-.35h0a24.261,24.261,0,0,1-4.668-2.567h0a23.514,23.514,0,0,1-4.143-3.851c-.292-.292-.525-.642-.817-.992L368.524,1079.236a23.465,23.465,0,0,1-4.784-14.178V725.55h0a24.035,24.035,0,0,1,1.342-6.768h0a25.393,25.393,0,0,1,2.159-4.376h0a15.913,15.913,0,0,1,1.225-1.75L572.089,443.337a23.328,23.328,0,0,1,11.319-8.11L893.685,332.6a1.081,1.081,0,0,1,.409-.117h.234a25.009,25.009,0,0,1,6.768-.992,22.1,22.1,0,0,1,5.485.7h.117c.525.117.992.292,1.517.408l326.264,104.2a23.381,23.381,0,0,1,11.844,8.577l193.879,269.2a22.978,22.978,0,0,1,4.551,13.478v.583l-1.575,341.492a23.039,23.039,0,0,1-4.609,13.828L1241.362,1348.5c-.175.234-.35.467-.583.759h0a27.06,27.06,0,0,1-4.376,4.2h0a21.8,21.8,0,0,1-4.843,2.684h0c-.467.175-.933.35-1.458.525L909.322,1465.711A28.81,28.81,0,0,1,901.679,1466.82Zm.233-48.076ZM1397.9,760.732ZM588.426,1290.211,410.357,758.865Zm795.531-574.054L924.55,386.567ZM425.294,714.64,877.874,386.8Z" transform="translate(-363.74 -331.49)" fill="#fff"/>
</svg>
