<svg xmlns="http://www.w3.org/2000/svg" xmlns:xlink="http://www.w3.org/1999/xlink" viewBox="0 0 1289 1263.001">
  <defs>
    <filter id="_12" x="0" y="346.5" width="1289" height="583.001" filterUnits="userSpaceOnUse">
      <feOffset dx="25" dy="13" input="SourceAlpha"/>
      <feGaussianBlur result="blur"/>
      <feFlood flood-color="#2b2b2b"/>
      <feComposite operator="in" in2="blur"/>
      <feComposite in="SourceGraphic"/>
    </filter>
  </defs>
  <rect id="Rectangle_39" data-name="Rectangle 39" width="1264" height="1263" rx="130" fill="#535353"/>
  <g data-name="diesvg">
  <path id="Path_13" data-name="Path 13" d="M901.679,1466.82a23.537,23.537,0,0,1-7.993-1.4L581.133,1351.531c-.292-.117-.642-.233-.934-.35h0a24.261,24.261,0,0,1-4.668-2.567h0a23.514,23.514,0,0,1-4.143-3.851c-.292-.292-.525-.642-.817-.992L368.524,1079.236a23.465,23.465,0,0,1-4.784-14.178V725.55h0a24.035,24.035,0,0,1,1.342-6.768h0a25.393,25.393,0,0,1,2.159-4.376h0a15.913,15.913,0,0,1,1.225-1.75L572.089,443.337a23.328,23.328,0,0,1,11.319-8.11L893.685,332.6a1.081,1.081,0,0,1,.409-.117h.234a25.009,25.009,0,0,1,6.768-.992,22.1,22.1,0,0,1,5.485.7h.117c.525.117.992.292,1.517.408l326.264,104.2a23.381,23.381,0,0,1,11.844,8.577l193.879,269.2a22.978,22.978,0,0,1,4.551,13.478v.583l-1.575,341.492a23.039,23.039,0,0,1-4.609,13.828L1241.362,1348.5c-.175.234-.35.467-.583.759h0a27.06,27.06,0,0,1-4.376,4.2h0a21.8,21.8,0,0,1-4.843,2.684h0c-.467.175-.933.35-1.458.525L909.322,1465.711A28.81,28.81,0,0,1,901.679,1466.82Zm.233-48.076ZM1397.9,760.732ZM588.426,1290.211,410.357,758.865Zm795.531-574.054L924.55,386.567ZM425.294,714.64,877.874,386.8Z" transform="translate(-271.93 -267.655)" fill="#2b2b2b"/>
  <path id="Path_9" data-name="Path 9" d="M901.679,1466.82a23.537,23.537,0,0,1-7.993-1.4L581.133,1351.531c-.292-.117-.642-.233-.934-.35h0a24.261,24.261,0,0,1-4.668-2.567h0a23.514,23.514,0,0,1-4.143-3.851c-.292-.292-.525-.642-.817-.992L368.524,1079.236a23.465,23.465,0,0,1-4.784-14.178V725.55h0a24.035,24.035,0,0,1,1.342-6.768h0a25.393,25.393,0,0,1,2.159-4.376h0a15.913,15.913,0,0,1,1.225-1.75L572.089,443.337a23.328,23.328,0,0,1,11.319-8.11L893.685,332.6a1.081,1.081,0,0,1,.409-.117h.234a25.009,25.009,0,0,1,6.768-.992,22.1,22.1,0,0,1,5.485.7h.117c.525.117.992.292,1.517.408l326.264,104.2a23.381,23.381,0,0,1,11.844,8.577l193.879,269.2a22.978,22.978,0,0,1,4.551,13.478v.583l-1.575,341.492a23.039,23.039,0,0,1-4.609,13.828L1241.362,1348.5c-.175.234-.35.467-.583.759h0a27.06,27.06,0,0,1-4.376,4.2h0a21.8,21.8,0,0,1-4.843,2.684h0c-.467.175-.933.35-1.458.525L909.322,1465.711A28.81,28.81,0,0,1,901.679,1466.82ZM625.825,1318.158l276.087,100.586,282.563-96.035L1101.8,1212.9H700.506Zm513.55-134.076,83.141,111.322L1396.5,1062.024l1.4-301.292-139.094,46.676ZM410.357,1057.065l178.068,233.146,74.389-104.787L543.675,802.74,410.357,758.865v298.2ZM705.7,1166.17h390.385l116.806-368.33L902.145,568.369,589.592,793.464ZM925.6,527.645l318.679,235.363,139.677-46.851L1212.889,478.694,924.55,386.567Zm-500.306,187L558.32,758.457,878.866,527.645,877.874,386.8,604.879,477.119Z" transform="translate(-271.93 -267.655)" fill="#ff5e5e"/>
 </g>
  <g transform="matrix(1, 0, 0, 1, 0, 0)" filter="url(#_12)">
  <text x="50%" y="50%" dominant-baseline="middle" text-anchor="middle" id="_12" data-name="td12" fill="#fff" font-size="467" font-family="Impact"><tspan x="-550" y="0"></tspan></text>
  </g>
</svg>
