<svg xmlns="http://www.w3.org/2000/svg" viewBox="0 0 1039.342 1189.857">
  <path id="Path_22" data-name="Path 22" d="M1391.46,948.905a22.324,22.324,0,0,0,5.271-14.187v-.561L1391.348,351.1a6.777,6.777,0,0,0-.056-1.065h0v-.056h0v-.056h0a22.477,22.477,0,0,0-1.962-7.963h0c0-.056,0-.056-.056-.112h0v-.112h0v-.056h0v-.056h0c-.224-.5-.505-1.009-.785-1.514q-.589-1.009-1.177-1.85h0V338.2h0v-.056h0v-.056h0a22,22,0,0,0-5.944-5.664h0a.055.055,0,0,1-.056-.056h0a10.426,10.426,0,0,0-1.065-.617L885.332,46.5a.055.055,0,0,1-.056-.056,22.055,22.055,0,0,0-3.084-1.458h-1.572a22.716,22.716,0,0,0-2.636-.673h-.842a22.414,22.414,0,0,0-13.962,2.243h-.168s0,.056-.056,0a.055.055,0,0,0-.056.056h0c-.225.112-.393.224-.617.336l-.056.056L377.576,328.667l-.841.5h-.056a22.337,22.337,0,0,0-10.262,17.607h0a5.442,5.442,0,0,1-.056.953L357.39,928.494h0v.056h0v.056h0v.112h0v.673h0v.056h0v.056h0v.056h0v.056h0v.056h0v.056h0v.056h0v.056h0v.056h0v.056h0v.056h0a21.713,21.713,0,0,0,2.411,8.8h0v.056h0v.056h0v.056h0v.056h0v.056h0v.056h0v.056h0a22.241,22.241,0,0,0,3.589,4.935h0l.056.056h0l.056.056h0v.056h0v.056l.056.056.056.056h0a20.185,20.185,0,0,0,2.916,2.411h0s.056.056.056,0h.281a7.832,7.832,0,0,0,.9.561c.224.168.5.28.729.449l499.959,283.064a22.391,22.391,0,0,0,9.533,2.86h.337c.449,0,.841.056,1.29.056C879.611,1233.875,1390.675,949.859,1391.46,948.905ZM880.005,1178.979Zm447.81-244.316L996.64,1120.437ZM758.1,1116.624,426.756,929Zm589.678-616.37,3.645,396.165ZM403.036,890.868l6.056-391.007Zm937.62-523.735ZM416.943,363.6ZM896.211,104.649l320.073,184.485ZM538.568,286.611,851.351,104.818Z" transform="translate(-357.389 -44.018)" fill="#fff"/>
</svg>
