<svg xmlns="http://www.w3.org/2000/svg"  viewBox="0 0 1264 1263">
  <g id="Group_4" data-name="Group 4" transform="translate(162.219 105.284)">
    <g id="Path_1" data-name="Path 1" transform="translate(0.514 -10.233)" fill="#fff">
      <path d="M 951.3689575195312 537.2122192382812 L 940.2890014648438 537.2122192382812 L -0.1047729477286339 537.2122192382812 L -11.20352268218994 537.2122192382812 L -3.849772930145264 528.8992919921875 L 466.9490966796875 -3.301433563232422 L 470.6988525390625 -7.540308475494385 L 474.4432373046875 -3.296683549880981 L 944.0380859375 528.904052734375 L 951.3689575195312 537.2122192382812 Z" stroke="none"/>
      <path d="M 470.694091796875 0.01141357421875 L -0.10479736328125 532.2122192382812 L 940.2890014648438 532.2122192382812 L 470.694091796875 0.01141357421875 M 470.7037353515625 -15.0919189453125 L 962.4488525390625 542.2122192382812 L -22.30224609375 542.2122192382812 L 470.7037353515625 -15.0919189453125 Z" stroke="none" fill="#fff"/>
    </g>
    <g id="Polygon_31" data-name="Polygon 31" transform="translate(940.802 1062.653) rotate(180)" fill="#fff">
      <path d="M 951.8214111328125 536.314208984375 L 940.71728515625 536.314208984375 L 1.757812424330041e-05 536.314208984375 L -11.10410785675049 536.314208984375 L -3.743732452392578 528 L 466.6147766113281 -3.314270496368408 L 470.3585205078125 -7.543145656585693 L 474.1022644042969 -3.314270496368408 L 944.4609985351562 528 L 951.8214111328125 536.314208984375 Z" stroke="none"/>
      <path d="M 470.3585205078125 0 L 0 531.314208984375 L 940.71728515625 531.314208984375 L 470.3585205078125 0 M 470.3585205078125 -15.08642578125 L 962.925537109375 541.314208984375 L -22.208251953125 541.314208984375 L 470.3585205078125 -15.08642578125 Z" stroke="none" fill="#fff"/>
    </g>
  </g>
  <text x="50%" y="50%" dominant-baseline="middle" text-anchor="middle" id="_8" fill="#535353" font-size="467" font-family="Impact"><tspan x="-206.137" y="0"></tspan></text>
</svg>
