<svg xmlns="http://www.w3.org/2000/svg" viewBox="0 0 1002.193 1124.29">
  <path id="Path_15" data-name="Path 15" d="M1621.839,876.965a20.694,20.694,0,0,0,3.947-2.92h0c.27-.27.595-.541.865-.865h0a21.713,21.713,0,0,0,6-14.924v-523a21.64,21.64,0,0,0-11.031-18.872L1139.235,45.644c-.379-.216-.811-.433-1.244-.649h-.162a20.6,20.6,0,0,0-3.461-1.3h-.162a22.529,22.529,0,0,0-5.732-.757h-.108a22.054,22.054,0,0,0-6,.865h-.271a20.6,20.6,0,0,0-3.569,1.46h-.108c-.216.108-.379.216-.595.324L641.6,310.17A21.651,21.651,0,0,0,630.46,329.1V858.256a19.951,19.951,0,0,0,.649,5.137h0v.054h0v.054h0v.054h0a21.416,21.416,0,0,0,1.568,4.272h0v.054h0v.054h0a21.533,21.533,0,0,0,1.081,1.893h0v.054h0v.054h0a24.167,24.167,0,0,0,2.7,3.407h0a21.9,21.9,0,0,0,4.272,3.407l479.359,287.4a21.638,21.638,0,0,0,11.139,3.082Zm-88.9,2.866L1131.719,1120.4Zm-404.2-773.518Zm460.7,674.618L1189.9,123.671ZM1068.507,122.59,673.989,780.066Z" transform="translate(-630.46 -42.94)" fill="#fff"/>
</svg>
