<svg xmlns="http://www.w3.org/2000/svg" xmlns:xlink="http://www.w3.org/1999/xlink" viewBox="0 0 1264 1263">
  <defs>
    <filter id="_12" x="425" y="346.498"  filterUnits="userSpaceOnUse">
      <feOffset dx="25" dy="13" input="SourceAlpha"/>
      <feGaussianBlur result="blur"/>
      <feFlood flood-color="#2b2b2b"/>
      <feComposite operator="in" in2="blur"/>
      <feComposite in="SourceGraphic"/>
    </filter>
  </defs>
  <rect id="Rectangle_40" data-name="Rectangle 40" width="1264" height="1263" rx="130" fill="#535353"/>
   <g data-name="diesvg">
    <path id="Path_20" data-name="Path 20" d="M1621.839,876.965a20.694,20.694,0,0,0,3.947-2.92h0c.27-.27.595-.541.865-.865h0a21.713,21.713,0,0,0,6-14.924v-523a21.64,21.64,0,0,0-11.031-18.872L1139.235,45.644c-.379-.216-.811-.433-1.244-.649h-.162a20.6,20.6,0,0,0-3.461-1.3h-.162a22.529,22.529,0,0,0-5.732-.757h-.108a22.054,22.054,0,0,0-6,.865h-.271a20.6,20.6,0,0,0-3.569,1.46h-.108c-.216.108-.379.216-.595.324L641.6,310.17A21.651,21.651,0,0,0,630.46,329.1V858.256a19.951,19.951,0,0,0,.649,5.137h0v.054h0v.054h0v.054h0a21.416,21.416,0,0,0,1.568,4.272h0v.054h0v.054h0a21.533,21.533,0,0,0,1.081,1.893h0v.054h0v.054h0a24.167,24.167,0,0,0,2.7,3.407h0a21.9,21.9,0,0,0,4.272,3.407l479.359,287.4a21.638,21.638,0,0,0,11.139,3.082Zm-88.9,2.866L1131.719,1120.4Zm-404.2-773.518Zm460.7,674.618L1189.9,123.671ZM1068.507,122.59,673.989,780.066Z" transform="translate(-499.557 26.414)" fill="#2b2b2b"/>
    <path id="Path_7" data-name="Path 7" d="M1621.839,876.965a20.694,20.694,0,0,0,3.947-2.92h0c.27-.27.595-.541.865-.865h0a21.713,21.713,0,0,0,6-14.924v-523a21.64,21.64,0,0,0-11.031-18.872L1139.235,45.644c-.379-.216-.811-.433-1.244-.649h-.162a20.6,20.6,0,0,0-3.461-1.3h-.162a22.529,22.529,0,0,0-5.732-.757h-.108a22.054,22.054,0,0,0-6,.865h-.271a20.6,20.6,0,0,0-3.569,1.46h-.108c-.216.108-.379.216-.595.324L641.6,310.17A21.651,21.651,0,0,0,630.46,329.1V858.256a19.951,19.951,0,0,0,.649,5.137h0v.054h0v.054h0v.054h0a21.416,21.416,0,0,0,1.568,4.272h0v.054h0v.054h0a21.533,21.533,0,0,0,1.081,1.893h0v.054h0v.054h0a24.167,24.167,0,0,0,2.7,3.407h0a21.9,21.9,0,0,0,4.272,3.407l479.359,287.4a21.638,21.638,0,0,0,11.139,3.082Zm-88.9,2.866L1131.719,1120.4,730.5,879.831Zm-404.2-773.518,443.887,730.259H690.59Zm460.7,241.6V780.931L1189.9,123.671ZM1068.507,122.59,673.989,780.066V341.749Z" transform="translate(-499.557 26.414)" fill="#ff5e5e"/>
  </g>
  <g transform="matrix(1, 0, 0, 1, 0, 0)" filter="url(#_12)">
    <text x="50%" y="50%" dominant-baseline="middle" text-anchor="middle" id="_8" data-name="td8" fill="#fff" font-size="467" font-family="Impact"><tspan x="-206.137" y="0"></tspan></text>
  </g>
</svg>
