<svg xmlns="http://www.w3.org/2000/svg" xmlns:xlink="http://www.w3.org/1999/xlink" viewBox="0 0 1289.332 1263">
  <defs>
    <filter id="_12" x="0.332" y="346.5" filterUnits="userSpaceOnUse">
      <feOffset dx="25" dy="13" input="SourceAlpha"/>
      <feGaussianBlur result="blur"/>
      <feFlood flood-color="#2b2b2b"/>
      <feComposite operator="in" in2="blur"/>
      <feComposite in="SourceGraphic"/>
    </filter>
  </defs>
  <rect id="Rectangle_32" data-name="Rectangle 32" width="1264" height="1263" rx="130" fill="#535353"/>
  <g data-name="diesvg">
  <path id="Path_21" data-name="Path 21" d="M922.739,1743.249c-.59,0-1.126,0-1.716-.053a21.591,21.591,0,0,1-11.853-4.72,11.212,11.212,0,0,1-1.18-1.073L356.623,1223.8a21.892,21.892,0,0,1-4.023-4.827,22.318,22.318,0,0,1-2.735-7.134,19.74,19.74,0,0,1-.376-3.915,22.735,22.735,0,0,1,.59-5.042,20.671,20.671,0,0,1,3.915-8.1c.483-.59.965-1.18,1.5-1.716L907.024,598.092c.214-.214.429-.483.643-.7h0a21.467,21.467,0,0,1,5.417-3.915h0a19.735,19.735,0,0,1,4.612-1.663h0a21.274,21.274,0,0,1,5.524-.59h.054a23.74,23.74,0,0,1,3.862.483h0a23.852,23.852,0,0,1,4.988,1.716h.054a21.7,21.7,0,0,1,5.042,3.486h0a12.853,12.853,0,0,1,1.18,1.234l551.634,595.132a21.475,21.475,0,0,1,5.417,11.049v.053h0a23.344,23.344,0,0,1,.268,4.291,20.97,20.97,0,0,1-2.467,9.225,27.847,27.847,0,0,1-1.663,2.682,22.97,22.97,0,0,1-2.843,3.164L937.381,1737.35a21.155,21.155,0,0,1-12.98,5.793A7.651,7.651,0,0,1,922.739,1743.249Zm21.508-70.8,488.023-454.609ZM413.584,1218.164l487.7,454.341Zm509.209-560Zm-96.811,90.428L438.524,1166.567Zm580.007,416.957L1020.516,749.717Z" transform="translate(-290.279 -535.734)" fill="#2b2b2b"/>
  <path id="Path_5" data-name="Path 5" d="M922.739,1743.249c-.59,0-1.126,0-1.716-.053a21.591,21.591,0,0,1-11.853-4.72,11.212,11.212,0,0,1-1.18-1.073L356.623,1223.8a21.892,21.892,0,0,1-4.023-4.827,22.318,22.318,0,0,1-2.735-7.134,19.74,19.74,0,0,1-.376-3.915,22.735,22.735,0,0,1,.59-5.042,20.671,20.671,0,0,1,3.915-8.1c.483-.59.965-1.18,1.5-1.716L907.024,598.092c.214-.214.429-.483.643-.7h0a21.467,21.467,0,0,1,5.417-3.915h0a19.735,19.735,0,0,1,4.612-1.663h0a21.274,21.274,0,0,1,5.524-.59h.054a23.74,23.74,0,0,1,3.862.483h0a23.852,23.852,0,0,1,4.988,1.716h.054a21.7,21.7,0,0,1,5.042,3.486h0a12.853,12.853,0,0,1,1.18,1.234l551.634,595.132a21.475,21.475,0,0,1,5.417,11.049v.053h0a23.344,23.344,0,0,1,.268,4.291,20.97,20.97,0,0,1-2.467,9.225,27.847,27.847,0,0,1-1.663,2.682,22.97,22.97,0,0,1-2.843,3.164L937.381,1737.35a21.155,21.155,0,0,1-12.98,5.793A7.651,7.651,0,0,1,922.739,1743.249Zm21.508-474.186v403.388l488.023-454.609-231.917-67.633Zm-530.663-50.9,487.7,454.341v-403.28l-256.16-116.173Zm263.025-97.991,246.077,111.614,246.291-114.3L922.793,658.163ZM825.982,748.591,438.524,1166.567l193.729-54.493Zm387.3,360.748,192.71,56.209L1020.516,749.717Z" transform="translate(-290.611 -535.734)" fill="#ff5e5e"/>
 </g>
  <g transform="matrix(1, 0, 0, 1, 0, 0)" filter="url(#_12)">
    <text x="50%" y="50%"  data-name="tdp" dominant-baseline="middle" text-anchor="middle" fill="#fff" font-size="467" font-family="Impact"><tspan x="-206.137" y="0"></tspan></text>
  </g>
</svg>
